<svg width="360" height="316" viewBox="0 0 360 316" fill="none" xmlns="http://www.w3.org/2000/svg">
<path fill-rule="evenodd" clip-rule="evenodd" d="M191.7 5.51803C214.299 6.77649 237.733 0.0626433 258.685 8.52506C279.927 17.1049 299.777 32.5867 309.532 53.1102C319.104 73.2503 303.19 98.2053 311.193 119.003C320.996 144.477 357.691 156.697 359.847 183.866C361.841 208.994 344.108 236.604 321.443 248.172C296.998 260.648 264.423 232.521 239.997 245.034C214.401 258.146 218.822 304.968 191.7 314.634C168.138 323.032 147.905 290.102 123.094 286.699C85.0505 281.48 36.3225 316.637 9.35104 289.621C-16.0355 264.191 17.9812 220.032 21.0073 184.44C23.1874 158.8 21.8295 133.872 24.767 108.305C27.993 80.2267 20.2801 46.9856 39.2319 25.8202C58.3693 4.44753 92.354 4.66816 120.978 0.856697C144.69 -2.30073 167.812 4.18777 191.7 5.51803Z" fill="#FEE2E2"/>
</svg>
