<svg width="1440" height="181" viewBox="0 0 1440 181" fill="none" xmlns="http://www.w3.org/2000/svg">
<path fill-rule="evenodd" clip-rule="evenodd" d="M-86.4368 309.829C-109.66 197.161 -57.5 131 210.523 58.9752C360.786 9.99644 572.512 72.8519 763.501 67.0007C967.36 60.7551 1173.75 -45.3975 1365.57 23.588C1558.54 92.9854 1550.54 233.555 1630.89 344.204C1695.37 432.992 1811.37 522.02 1788.69 606.248C1766.47 688.795 1627.87 732.827 1513.03 782.008C1403.81 828.78 1294.26 877.573 1141.49 883.399C982.72 889.454 807.941 867.054 656.369 814.677C507.047 763.079 432.138 675.044 322.093 600.251C178.205 502.458 -63.4644 421.279 -86.4368 309.829Z" fill="#FECACA"/>
</svg>
